<?xml version="1.0" encoding="UTF-8"?>
<svg width="512pt" height="512pt" version="1.1" viewBox="0 0 512 512" xmlns="http://www.w3.org/2000/svg">
 <g>
  <path d="m37.77 431.17 17.52-18.078 23.742-9.8594c-5.2031 5.2227-11.98 11.848-19.926 19.23z"/>
  <path d="m401.04 69.285c-2.1289 0-4.0703 0.85938-5.4883 2.2383 0.57812-0.1875 1.1758-0.3125 1.8164-0.3125 3.3086 0 5.9961 2.6836 5.9961 5.9961 0 3.3086-2.6836 5.9922-5.9961 5.9922-0.64063 0-1.2539-0.12109-1.8281-0.3125 1.4297 1.3828 3.3633 2.2422 5.5 2.2422 4.3672 0 7.9219-3.5547 7.9219-7.9219 0-4.3711-3.5547-7.9219-7.9219-7.9219z"/>
  <path d="m417.25 49.926c-27.504-4.4922-49.91 11.5-50.137 11.664l-0.92578 0.67188h-1.1523-0.027344c-1.0742 0-38.57 0.21484-61.973 18.914 0.625-0.003906 1.2656-0.003906 1.9336-0.003906 6.7422 0.019531 15.723 0.30859 24.652 1.1484 4.4688 0.40625 8.9141 1 13.066 1.6602 4.1523 0.70703 7.9766 1.5469 11.219 2.3945 1.6211 0.42578 3.0938 0.9375 4.3867 1.3203 1.3125 0.36719 2.4062 0.83594 3.3086 1.1914 1.8125 0.72266 2.8477 1.1328 2.8477 1.1328s-1.0703-0.3125-2.9375-0.85156c-0.93359-0.26562-2.0547-0.62109-3.3906-0.85547-1.3242-0.25-2.8008-0.61328-4.4375-0.875-3.2812-0.52344-7.1211-0.97656-11.254-1.2656-4.1328-0.24609-8.5469-0.40625-12.957-0.36719-2.1641 0.011718-4.3281 0.050781-6.457 0.12109 20.312 5.2344 44.781 16.367 50.238 39.945l0.59766 2.5742-2.3242 1.2734c-0.92188 0.50781-92.445 51.016-129.78 97.578-31.891 39.773-93.781 80.414-115.29 93.922 6.4414 1.2578 16.199 3 27.961 4.5312 1.5312-0.72266 4.4688-2.1211 8.2227-4.0391 2.7969-1.3984 6.0625-3.0312 9.5547-4.7812 3.457-1.8594 7.1406-3.8398 10.82-5.832 3.6719-2.0117 7.4375-3.8711 10.773-5.9375 3.3789-1.9922 6.5273-3.8594 9.2305-5.457 5.4219-3.2109 9.0312-5.3516 9.0312-5.3516s-3.3633 2.5-8.4219 6.2617c-2.5273 1.8789-5.4844 4.0703-8.6484 6.4102-3.1289 2.4336-6.6797 4.668-10.137 7.0703-3.4805 2.3711-6.9648 4.7305-10.23 6.957-3.332 2.1289-6.4531 4.1133-9.1133 5.8203-0.085938 0.0625-0.16016 0.10156-0.24609 0.14844 7.5742 0.79688 15.699 1.4492 24.129 1.8164 0.60547-0.29297 1.4805-0.72266 2.5977-1.2695 2.2734-1.0898 5.5156-2.6797 9.332-4.6602 3.8398-1.9492 8.3203-4.25 13.121-6.6914 4.8008-2.4688 9.7852-5.3516 14.848-8.0781 2.5234-1.3867 5.043-2.7812 7.5352-4.1523 2.4609-1.3867 4.9766-2.6523 7.2617-4.0898 4.582-2.8516 8.8516-5.5078 12.52-7.7969 7.3516-4.5859 12.246-7.6406 12.246-7.6406s-4.6484 3.4102-11.629 8.5391c-3.5039 2.5703-7.582 5.5586-11.961 8.7695-2.1914 1.6172-4.5859 3.0508-6.9492 4.6406-2.3867 1.5508-4.8086 3.1289-7.2305 4.7188-4.8594 3.1289-9.6523 6.3906-14.281 9.2305-4.6406 2.832-8.9688 5.4688-12.684 7.7422-0.60938 0.36719-1.1719 0.71094-1.75 1.0586 8.9609 0.039062 18.09-0.29297 27.102-1.1641 1.832-0.91016 7.4492-3.7227 15.18-7.8086 4.7656-2.457 10.238-5.4766 16.133-8.6797 5.8867-3.2109 12.066-6.8008 18.301-10.312 3.0703-1.8398 6.1406-3.6797 9.1641-5.4883 3.0039-1.8281 6.0273-3.5391 8.8438-5.3594 5.6367-3.6406 10.938-6.9883 15.418-9.9375 8.7812-6.1992 14.633-10.344 14.633-10.344s-5.6055 4.4922-14 11.219c-4.3008 3.2305-9.3945 6.9023-14.828 10.902-2.7031 2-5.6328 3.8828-8.5312 5.9102-2.918 1.9922-5.8828 4.0312-8.8516 6.0508-6.0312 3.9023-12.016 7.8984-17.727 11.48-5.7148 3.5469-11.027 6.9336-15.668 9.6914-0.097657 0.0625-0.17578 0.10938-0.27734 0.16016 0.17969-0.03125 0.35938-0.050781 0.53125-0.09375 57.457-11.141 119.6-55.898 146.5-92.738 25.707-35.211 4.4961-62.637 4.2852-62.906l5.457-4.3477c0.24609 0.3125 24.703 31.906-4.1133 71.367-27.305 37.406-89.445 83.586-150.81 95.484-36.27 7.0195-77.129 3.3594-103.85-0.64063-8.8203 6.7031-64.664 49.152-105.3 80.301l66.457-27.637-10.645 11.637c-0.31641 0.33984-30.863 33.582-71.074 65.371 5.8438 2.1797 17.027 3.8086 30.512-6.9336 21.816-17.363 68.395-52.301 68.859-52.648l0.80859-0.46094 108.06-42.754 1.6094 2.0391c0.16016 0.1875 16.062 19.891 41.492 21.152l2.0781 0.10156 0.90234 1.8789c0.0625 0.12891 3.1328 13.711 12.195 23.051l0.43359 0.44922 8.1562 26.219-2.2031 1.1758c-0.078125 0.03125-10.531 5.457-16.344 9.4297 18.543-2.0781 39.711 1.2188 60.215 7.9922-3.7773-3.2617-23.727-18.309-29.293-20.387l-1.3242-0.5-9.1641-23.617 1.5703-1.7188c0.054688-0.0625 3.957-5.5312 6.6445-10.332l2.6836-4.8008 3.1992 4.4688c1.2969 1.8125 3.7461 6.9492 6.875 9.2617l0.66406 0.48047 10.988 21.992s-7.2656 2.4531-11.254 7.2695c9.7773-0.56641 28.84 1.3398 46.91 3.9336-6.3281-4.9492-20.547-12.348-26.113-13.137l-1.7422-0.25-10.301-20.449 0.33984-1.332c0.046875-0.16797 1.1641-14.93-3.0039-29.312l-0.87109-3.0117 2.8984-1.1875c0.58203-0.23047 58.973-24.426 91.289-61.977 29.871-34.719 61.441-99.805 64.641-166.93 2.9961-61.953-42.516-86.039-69.859-90.508zm-16.207 38.688c-6.293 0-11.414-5.1211-11.414-11.414s5.125-11.414 11.414-11.414c6.2891 0 11.414 5.1211 11.414 11.414s-5.1211 11.414-11.414 11.414z"/>
 </g>
</svg>
