<?xml version="1.0" standalone="no"?>
<!DOCTYPE svg PUBLIC "-//W3C//DTD SVG 20010904//EN"
 "http://www.w3.org/TR/2001/REC-SVG-20010904/DTD/svg10.dtd">
<svg version="1.0" xmlns="http://www.w3.org/2000/svg"
 width="1350.000000pt" height="1350.000000pt" viewBox="0 0 1350.000000 1350.000000"
 preserveAspectRatio="xMidYMid meet">
<metadata>
Created by potrace 1.14, written by Peter Selinger 2001-2017
</metadata>
<g transform="translate(0.000000,1350.000000) scale(0.100000,-0.100000)"
fill="#000000" stroke="none">
<path d="M9380 10639 c-36 -4 -85 -13 -110 -19 -25 -6 -60 -14 -78 -17 -18 -3
-35 -9 -38 -14 -3 -5 -14 -9 -25 -9 -10 0 -27 -4 -37 -9 -9 -5 -28 -13 -42
-19 -59 -23 -208 -98 -245 -123 -35 -23 -53 -27 -150 -33 -171 -9 -299 -28
-500 -74 -74 -17 -230 -74 -331 -122 -121 -57 -250 -138 -238 -150 5 -4 98
-10 206 -13 109 -3 202 -8 207 -12 6 -3 50 -6 98 -6 48 -1 93 -5 98 -9 6 -4
38 -11 73 -15 59 -6 64 -5 69 14 4 17 12 21 37 19 37 -2 87 26 62 35 -10 4
-13 17 -11 43 4 44 -9 74 -33 74 -15 0 -15 2 -2 10 12 8 11 10 -7 10 -13 0
-23 -4 -23 -10 0 -5 -8 -10 -17 -10 -9 0 -31 -5 -49 -12 -30 -11 -35 -10 -54
12 -11 13 -20 26 -20 30 0 4 21 17 48 28 l47 20 -37 1 c-43 1 -63 21 -21 21
16 0 33 4 38 9 22 20 288 38 318 22 12 -6 36 -13 52 -14 24 -2 30 2 28 17 -1
11 6 26 15 33 21 16 122 17 122 2 0 -8 5 -8 15 1 11 9 19 9 28 2 7 -6 56 -13
108 -14 70 -2 86 -5 64 -11 -16 -5 -38 -12 -47 -18 -10 -5 -27 -9 -37 -9 -11
0 -23 -4 -26 -10 -3 -5 -19 -10 -36 -10 -16 0 -29 5 -29 10 0 6 -7 10 -16 10
-8 0 -13 4 -9 9 3 5 -8 16 -25 25 -24 11 -37 12 -61 4 -29 -10 -29 -11 -13
-29 16 -18 15 -19 -7 -28 -13 -5 -27 -7 -31 -4 -5 2 -8 -1 -8 -8 0 -7 10 -9
24 -7 17 3 26 0 28 -11 7 -27 -3 -51 -20 -51 -9 0 -29 -10 -45 -23 -24 -19
-26 -26 -18 -53 7 -25 5 -34 -8 -45 -18 -16 -27 -16 -54 -4 -10 4 -28 3 -40
-3 -12 -6 -34 -13 -49 -16 -70 -16 -8 -35 122 -37 41 -1 60 -4 42 -6 -18 -2
-30 -9 -26 -14 3 -5 10 -6 16 -3 7 4 8 2 4 -4 -9 -15 -56 -16 -56 -2 0 6 -15
9 -32 9 l-33 -1 30 -8 c25 -6 26 -8 7 -9 -25 -1 -76 -41 -52 -41 10 0 11 -3 3
-11 -7 -7 -28 -9 -55 -5 -23 4 -139 12 -256 18 -157 8 -216 8 -224 0 -8 -8 -8
-12 3 -15 8 -3 34 -10 59 -18 25 -7 49 -16 55 -21 5 -4 17 -8 27 -8 10 0 26
-4 36 -9 9 -5 28 -13 42 -19 57 -22 208 -99 246 -124 23 -16 51 -28 63 -28 12
0 21 -6 21 -14 0 -17 83 -86 104 -86 9 0 13 -6 10 -13 -2 -7 18 -35 46 -61 27
-26 50 -51 50 -56 0 -5 6 -15 13 -22 19 -20 84 -157 101 -215 28 -90 25 -97
-56 -144 -40 -23 -129 -76 -198 -117 -69 -41 -135 -80 -147 -86 -13 -6 -23
-14 -23 -18 0 -5 -5 -8 -11 -8 -6 0 -30 -13 -54 -30 -24 -16 -46 -30 -50 -30
-3 0 -33 -18 -65 -40 -32 -22 -64 -40 -69 -40 -6 0 -11 -4 -11 -10 0 -5 -5
-10 -10 -10 -6 0 -132 -82 -282 -182 -149 -101 -278 -187 -287 -193 -9 -5 -18
-13 -21 -16 -3 -3 -34 -25 -70 -49 -36 -24 -74 -53 -85 -63 -11 -10 -46 -37
-77 -58 -32 -22 -58 -44 -58 -49 0 -6 -6 -10 -12 -10 -13 0 -63 -37 -105 -77
-13 -13 -26 -23 -30 -23 -6 0 -129 -100 -184 -151 -22 -20 -54 -47 -71 -60
-64 -49 -388 -357 -388 -370 0 -3 -21 -27 -46 -52 -25 -25 -43 -50 -40 -55 3
-6 -2 -12 -12 -14 -10 -3 -32 -26 -48 -51 -16 -26 -33 -46 -38 -47 -10 0 -56
-51 -56 -62 0 -3 -20 -27 -45 -51 -25 -25 -45 -50 -45 -56 0 -6 -4 -11 -8 -11
-5 0 -82 -72 -173 -161 -90 -88 -183 -175 -206 -192 -23 -18 -45 -40 -48 -49
-4 -10 -11 -18 -16 -18 -6 0 -21 -11 -34 -24 -14 -14 -42 -37 -62 -52 -21 -16
-55 -45 -76 -66 -21 -21 -42 -38 -45 -38 -4 0 -23 -14 -42 -30 -19 -16 -38
-30 -42 -30 -5 0 -8 -7 -8 -15 0 -8 -6 -15 -14 -15 -8 0 -33 -16 -57 -36 -23
-19 -113 -88 -198 -151 -86 -64 -160 -121 -166 -127 -5 -6 -22 -17 -37 -25
-15 -8 -36 -22 -45 -30 -41 -38 -667 -461 -681 -461 -5 0 -17 -9 -26 -19 -17
-18 -16 -19 16 -30 18 -5 60 -13 94 -17 66 -7 63 -10 65 59 0 26 2 27 55 27
30 0 54 5 54 10 0 17 25 11 38 -10 11 -18 10 -20 -14 -20 -21 0 -24 -4 -19
-20 6 -18 2 -20 -39 -20 -25 0 -46 -4 -46 -10 0 -5 4 -10 10 -10 5 0 17 -8 27
-19 14 -14 44 -21 127 -29 110 -11 112 -10 193 24 17 8 37 14 45 14 8 0 23 7
34 15 18 13 15 14 -28 15 -27 0 -48 5 -48 11 0 6 17 9 43 7 28 -2 46 2 55 12
8 8 11 10 8 5 -2 -6 -1 -17 5 -25 6 -10 9 -11 9 -2 0 6 8 12 18 12 18 0 115
44 140 63 11 8 11 12 0 19 -9 6 -6 7 8 4 20 -6 75 15 104 40 8 7 17 13 20 13
23 0 39 16 38 36 -2 18 -5 21 -15 13 -7 -6 -10 -15 -6 -22 3 -6 3 -8 -2 -4 -4
4 -23 1 -42 -7 -41 -17 -73 -19 -73 -5 0 6 14 10 32 10 17 0 28 3 25 7 -4 3 5
16 18 29 14 13 25 28 25 34 0 14 23 13 38 -2 7 -7 12 -20 12 -30 0 -12 7 -18
22 -18 24 0 168 79 168 92 0 4 9 8 20 8 11 0 20 4 20 8 0 4 15 14 34 20 43 16
88 51 81 63 -5 8 7 13 26 11 3 -1 6 5 6 13 0 8 -4 12 -9 9 -4 -3 -8 0 -8 5 0
6 9 11 19 11 14 0 18 -5 14 -21 -5 -19 -4 -20 16 -8 11 8 21 17 21 20 0 4 9 9
20 12 11 3 20 12 20 21 0 11 9 16 31 16 20 0 29 -4 27 -12 -6 -18 -69 -59 -79
-52 -5 3 -9 0 -9 -5 0 -6 9 -11 20 -11 11 0 20 -5 20 -10 0 -6 -16 -8 -40 -5
-28 3 -40 1 -40 -8 0 -6 -15 -19 -33 -28 -17 -9 -63 -38 -100 -65 -241 -172
-493 -344 -504 -344 -4 0 -21 -11 -38 -24 -38 -31 -31 -34 110 -40 61 -3 139
-8 174 -12 40 -4 67 -2 74 5 6 6 30 11 54 11 28 0 48 6 60 19 10 10 38 22 63
26 57 9 436 194 460 225 3 4 19 13 37 20 17 8 29 18 27 22 -3 4 5 8 17 8 22 0
131 57 137 72 2 4 10 8 18 8 8 0 14 5 14 10 0 6 9 10 20 10 11 0 20 5 20 10 0
6 8 10 18 10 9 0 40 13 67 28 99 56 130 75 157 93 14 11 31 19 37 19 6 0 11 3
11 8 0 4 13 13 28 20 16 6 38 21 49 32 29 26 85 60 101 60 26 0 9 -17 -73 -70
-46 -30 -85 -58 -85 -62 0 -5 -7 -8 -15 -8 -8 0 -15 -4 -15 -8 0 -4 -13 -16
-30 -25 -16 -10 -35 -23 -42 -30 -22 -22 -136 -97 -147 -97 -6 0 -11 -4 -11
-8 0 -5 -17 -18 -38 -30 -21 -12 -113 -71 -205 -132 -92 -60 -172 -110 -177
-110 -6 0 -10 -4 -10 -10 0 -5 -5 -10 -11 -10 -6 0 -30 -13 -54 -30 -24 -16
-46 -30 -50 -30 -11 0 -95 -60 -95 -68 0 -4 13 -8 30 -8 18 -1 27 2 23 9 -4 6
4 7 23 3 45 -11 60 -12 196 -2 71 4 125 12 122 17 -3 5 9 9 25 9 17 0 31 -4
31 -10 0 -19 25 -10 137 46 99 51 110 59 95 70 -15 12 -11 13 27 14 49 0 118
35 561 283 57 31 107 57 111 57 5 0 9 4 9 8 0 5 16 14 35 22 19 8 35 17 35 22
0 4 4 8 9 8 5 0 47 23 93 51 79 49 106 65 182 108 18 11 92 58 164 105 72 47
134 86 139 86 4 0 14 9 21 20 16 26 94 67 86 45 -4 -8 -9 -15 -13 -15 -4 0
-16 -8 -27 -18 -33 -30 -316 -237 -399 -292 -44 -30 -81 -57 -83 -62 -2 -4 -9
-8 -15 -8 -7 0 -28 -14 -47 -30 -19 -16 -40 -30 -47 -30 -6 0 -13 -4 -15 -8
-1 -5 -34 -29 -73 -54 -156 -101 -316 -203 -420 -269 -142 -89 -145 -91 -139
-100 3 -5 16 -4 30 1 14 6 38 10 52 10 15 0 36 6 47 14 11 7 40 17 65 20 63
10 81 16 75 26 -7 12 21 20 70 20 43 0 100 22 88 33 -3 4 7 7 23 7 37 0 112
26 131 45 8 8 25 15 38 15 28 0 75 20 75 32 0 4 11 8 25 8 31 0 76 20 69 31
-3 5 3 9 12 9 23 0 84 22 84 31 0 4 14 12 30 18 17 6 43 16 60 22 16 6 27 15
24 20 -3 5 8 9 24 9 16 0 37 9 47 20 10 11 23 20 30 20 17 0 65 24 65 33 0 4
6 7 14 7 21 0 67 26 59 33 -3 4 0 7 8 7 20 0 69 23 69 33 0 4 7 7 15 7 8 0 15
3 15 8 0 4 15 14 33 21 32 15 119 68 232 144 103 69 220 151 225 157 3 3 21
17 40 30 19 13 37 27 40 30 3 3 21 17 40 30 19 13 41 30 48 37 8 7 30 26 50
41 20 15 46 36 58 48 12 11 44 38 70 60 61 48 178 160 298 283 126 130 126
129 176 191 25 30 47 57 50 60 15 14 93 123 130 180 215 335 245 700 83 1025
l-46 94 34 39 c19 22 40 43 47 46 18 8 41 -4 36 -19 -3 -7 2 -15 11 -19 11 -4
14 -13 10 -25 -3 -11 -1 -22 4 -26 27 -16 109 -244 127 -351 10 -62 14 -318 5
-324 -5 -3 -11 -25 -14 -50 -7 -63 -40 -171 -78 -257 -11 -24 -19 -49 -19 -57
0 -8 -4 -16 -9 -18 -5 -1 -11 -10 -13 -18 -2 -8 -7 -19 -11 -25 -4 -5 -23 -35
-42 -65 -46 -72 -56 -87 -82 -118 -13 -15 -23 -33 -23 -39 0 -7 -5 -13 -10
-13 -6 0 -13 -7 -17 -16 -3 -9 -15 -26 -27 -38 -12 -12 -43 -48 -71 -81 -77
-93 -284 -305 -368 -378 -12 -10 -38 -33 -57 -50 -119 -108 -341 -284 -465
-368 -44 -30 -89 -62 -99 -71 -11 -10 -24 -18 -28 -18 -5 0 -18 -9 -30 -20
-12 -11 -28 -20 -35 -20 -7 0 -13 -4 -13 -8 0 -5 -20 -19 -45 -32 -25 -13 -45
-27 -45 -32 0 -4 -4 -8 -9 -8 -5 0 -39 -18 -75 -40 -36 -22 -70 -40 -76 -40
-5 0 -10 -3 -10 -7 0 -5 -10 -13 -23 -19 -12 -6 -62 -33 -112 -59 -279 -149
-557 -272 -750 -332 -44 -14 -88 -29 -97 -34 -10 -5 -27 -9 -37 -9 -11 0 -22
-4 -25 -9 -3 -5 -20 -11 -38 -14 -55 -9 -92 -18 -113 -27 -11 -5 -33 -11 -50
-14 -16 -3 -52 -10 -80 -16 -282 -59 -475 -74 -940 -74 -425 0 -643 13 -950
54 -44 6 -99 13 -122 16 -28 4 -43 2 -43 -5 0 -6 -6 -11 -14 -11 -8 0 -16 -3
-18 -7 -1 -5 -21 -22 -43 -39 -22 -17 -69 -53 -105 -80 -36 -28 -103 -79 -150
-115 -47 -35 -87 -66 -90 -70 -3 -3 -26 -20 -52 -38 -27 -17 -48 -36 -48 -41
0 -6 -6 -10 -13 -10 -7 0 -22 -8 -33 -18 -10 -10 -35 -29 -54 -42 -38 -27 -65
-48 -85 -67 -8 -7 -16 -13 -19 -13 -5 0 -32 -21 -60 -45 -6 -6 -27 -22 -46
-35 -19 -13 -37 -27 -40 -30 -3 -3 -20 -16 -38 -29 -44 -30 -40 -41 13 -41 29
0 45 -4 45 -12 0 -7 10 1 22 18 12 17 34 36 49 43 16 7 31 21 34 32 4 10 14
19 24 19 10 0 26 9 36 20 10 11 24 20 30 20 7 0 15 9 18 20 3 13 10 18 21 14
10 -4 18 0 22 10 3 9 16 16 29 16 13 0 25 7 29 15 3 8 12 12 21 9 8 -3 15 -1
15 5 0 6 9 11 21 11 11 0 17 -4 14 -10 -3 -6 5 -10 19 -10 13 0 27 6 29 13 4
10 6 10 6 0 1 -7 13 -13 27 -13 14 0 23 -4 19 -10 -3 -5 -15 -10 -26 -10 -10
0 -19 -4 -19 -10 0 -5 -13 -10 -30 -10 -23 0 -30 -4 -30 -20 0 -13 7 -20 20
-20 11 0 20 -3 20 -6 0 -11 -29 -34 -43 -34 -18 0 -28 -24 -21 -47 5 -14 4
-15 -4 -4 -8 11 -11 9 -17 -8 -6 -21 -25 -29 -25 -11 0 6 -11 10 -24 10 -28 0
-78 -24 -69 -33 3 -4 0 -7 -8 -7 -8 0 -20 -9 -27 -20 -10 -17 -10 -20 3 -20 8
0 15 -4 15 -10 0 -5 16 -10 35 -10 19 0 35 -4 35 -10 0 -5 18 -10 40 -10 22 0
40 -4 40 -10 0 -5 9 -10 20 -10 11 0 20 5 20 10 0 15 40 12 41 -2 0 -7 4 -4 9
7 l9 20 1 -20 c2 -11 2 -23 1 -28 -2 -12 17 -8 22 6 5 12 20 -2 31 -28 2 -6 8
-5 16 2 10 9 10 15 1 26 -6 8 -9 22 -5 31 6 14 9 14 25 -5 11 -12 19 -28 19
-35 0 -7 6 -14 12 -16 9 -3 8 -9 -4 -21 -18 -19 -38 -22 -38 -7 0 14 -37 12
-43 -2 -3 -7 -6 -3 -6 10 -1 12 -7 22 -16 22 -9 0 -12 -6 -9 -15 6 -15 -14
-20 -58 -16 -10 1 -18 -2 -18 -7 0 -5 47 -10 104 -11 l104 -2 6 27 c4 15 3 31
-3 37 -13 13 7 57 26 57 8 0 11 -4 8 -10 -3 -5 -3 -15 1 -21 4 -8 9 -7 15 2 5
9 10 5 14 -13 8 -32 0 -49 -20 -41 -8 3 -15 0 -15 -6 0 -7 35 -11 106 -11 67
0 103 4 99 10 -4 6 5 10 19 10 14 0 26 5 26 10 0 14 27 13 36 -2 5 -7 3 -8 -6
-3 -9 5 -11 4 -6 -3 10 -17 33 -15 40 3 8 21 38 19 34 -2 -3 -20 -58 -37 -72
-22 -6 5 -19 9 -30 8 -19 -1 -19 -2 2 -7 40 -12 19 -27 -30 -24 -30 3 -48 0
-48 -7 0 -7 21 -11 50 -11 36 0 50 -4 50 -14 0 -8 -6 -17 -12 -19 -10 -4 -10
-6 0 -6 24 -2 11 -21 -14 -21 -19 0 -25 4 -20 15 4 11 -1 15 -17 14 -12 0 -16
-3 -9 -6 21 -8 13 -25 -10 -21 -13 2 -22 9 -20 16 1 9 -19 12 -72 12 -43 0
-78 5 -82 11 -3 6 -15 8 -26 6 -11 -3 -21 0 -25 9 -4 10 -9 11 -18 4 -6 -5
-14 -7 -18 -4 -3 3 -52 6 -108 7 l-103 1 -8 -32 c-10 -37 -12 -38 -64 -13 -21
10 -67 24 -102 30 -36 7 -72 21 -83 32 -20 20 -49 26 -49 10 0 -5 10 -16 22
-24 13 -9 17 -16 10 -16 -7 -1 -20 8 -29 18 -9 11 -23 17 -32 13 -14 -5 -14
-3 -2 11 11 14 11 18 -5 23 -11 3 -27 10 -36 15 -10 5 -25 9 -33 9 -8 0 -15 5
-15 12 0 6 -10 2 -23 -10 -29 -27 -43 -28 -50 -2 -4 16 0 20 20 20 29 0 101
66 87 80 -23 23 -59 20 -89 -6 -16 -14 -40 -33 -52 -41 -13 -8 -20 -19 -17
-24 3 -5 -2 -9 -11 -9 -18 0 -125 -78 -125 -91 0 -5 -6 -9 -12 -9 -7 0 -35
-18 -63 -41 -27 -22 -70 -54 -95 -71 -25 -18 -47 -34 -50 -38 -3 -3 -21 -17
-40 -30 -19 -14 -42 -30 -50 -37 -29 -24 -139 -109 -210 -163 -192 -146 -245
-192 -215 -184 47 11 410 165 413 175 2 5 11 9 20 9 23 0 82 23 82 32 0 4 9 8
20 8 18 0 52 13 140 53 14 7 28 17 33 24 4 6 22 14 40 18 43 9 97 34 97 45 0
14 -18 21 -25 10 -8 -13 -65 -13 -65 1 0 5 4 8 8 5 4 -2 14 -1 22 4 12 7 12
10 -3 16 -41 15 -9 24 96 24 135 1 166 3 161 11 -2 4 11 9 29 12 17 4 47 9 64
13 18 3 33 3 33 0 0 -3 -28 -35 -61 -71 -34 -35 -73 -79 -88 -96 -43 -54 -456
-465 -601 -599 -246 -229 -259 -240 -326 -297 -59 -50 -78 -66 -136 -118 -25
-22 -60 -51 -78 -65 -18 -14 -40 -32 -50 -40 -10 -8 -52 -43 -94 -78 -43 -35
-75 -69 -73 -75 5 -17 49 -24 153 -26 65 -1 96 3 110 14 10 8 33 15 50 15 33
0 194 76 194 91 0 5 7 9 15 9 8 0 15 4 15 8 0 4 12 15 27 24 16 9 39 26 53 38
14 12 41 34 60 49 19 14 37 28 40 31 6 6 64 50 170 131 47 35 87 66 90 69 8 8
74 59 210 161 69 51 127 96 130 99 3 3 21 17 40 30 19 13 37 27 40 30 3 3 21
17 40 30 34 24 61 45 84 65 6 6 45 35 86 65 41 30 77 57 80 60 3 3 49 38 102
78 64 48 123 83 175 103 43 17 86 35 95 40 10 5 22 9 28 9 6 0 29 9 53 19 23
10 57 25 75 32 17 8 32 17 32 21 0 5 11 8 25 8 14 0 33 4 43 9 9 5 31 14 47
21 17 7 38 16 47 21 10 5 27 9 38 9 11 0 20 4 20 8 0 4 17 14 38 21 41 14 77
28 104 42 10 5 24 9 31 9 7 0 32 9 55 20 22 11 46 20 52 20 5 0 18 4 28 9 9 5
28 13 42 18 48 20 85 36 111 49 14 7 60 25 102 39 79 26 219 84 270 110 16 8
36 15 44 15 8 0 32 8 52 19 20 10 54 24 76 31 22 7 52 21 67 31 14 11 35 19
47 19 27 0 72 21 65 31 -3 5 -1 17 5 27 11 21 4 35 -24 47 -17 6 -13 10 25 20
l45 13 -47 1 c-27 1 -48 6 -48 11 0 6 31 10 73 10 54 -1 68 -3 55 -11 -24 -14
-23 -29 3 -29 11 0 18 4 15 8 -2 4 -1 14 5 22 5 8 9 10 9 5 0 -6 12 -12 27
-13 15 -1 30 -7 34 -13 4 -8 17 -9 35 -4 16 4 40 8 54 9 18 1 25 6 23 19 -1
17 1 17 19 -2 14 -16 28 -20 54 -17 45 4 70 26 31 26 -15 0 -27 5 -27 10 0 6
30 10 70 10 40 0 70 -4 70 -10 0 -5 -16 -10 -35 -10 -19 0 -35 -4 -35 -10 0
-11 11 -13 52 -10 14 1 29 -3 33 -9 6 -10 -50 -17 -99 -11 -11 1 -16 -3 -11
-10 4 -7 18 -9 36 -5 22 5 29 3 27 -6 -2 -10 14 -14 64 -14 37 0 68 -4 68 -10
0 -5 -20 -8 -45 -6 -27 1 -45 -2 -45 -8 0 -6 5 -11 10 -11 6 0 10 -7 10 -15 0
-9 -9 -15 -25 -15 -14 0 -25 -5 -25 -10 0 -12 52 -1 61 13 4 5 11 7 17 3 6 -3
14 0 19 8 6 11 17 13 43 7 27 -7 31 -10 18 -16 -28 -11 -21 -28 9 -22 15 3 38
1 52 -5 l26 -10 -24 -12 c-15 -8 -37 -10 -61 -6 -21 4 -44 4 -51 -1 -8 -5 -4
-8 12 -11 22 -3 36 -29 15 -27 -19 2 -25 -26 -9 -38 9 -7 13 -13 7 -13 -14 0
19 -20 34 -20 6 0 12 5 12 10 0 6 -7 10 -16 10 -8 0 -12 5 -9 10 3 6 42 10 87
10 72 0 79 -2 67 -16 -21 -25 7 -34 82 -27 45 4 68 2 73 -6 5 -7 -2 -11 -18
-11 -14 0 -26 -4 -26 -10 0 -19 -40 -50 -65 -50 -22 0 -24 3 -18 30 6 32 -5
37 -55 24 -22 -6 -22 -7 -5 -26 10 -11 33 -26 52 -34 38 -16 187 -19 196 -4 4
6 -13 10 -45 10 -32 0 -49 4 -45 10 3 6 28 10 56 10 37 0 49 -4 49 -15 0 -20
10 -19 26 2 7 10 16 14 20 10 5 -4 2 -12 -5 -16 -23 -15 37 -23 162 -22 74 0
116 -3 112 -9 -3 -6 -39 -10 -79 -10 -39 0 -77 -5 -83 -11 -8 -8 -13 -8 -17 0
-9 13 -56 15 -56 2 0 -15 24 -20 81 -17 30 2 59 0 64 -3 6 -3 13 -6 18 -6 4 0
7 -4 7 -10 0 -5 21 -12 46 -15 52 -6 69 -25 29 -32 -33 -7 -107 13 -101 28 2
6 1 17 -4 24 -6 9 -10 6 -15 -11 -4 -13 -12 -27 -18 -31 -12 -7 7 -83 25 -105
15 -19 29 -16 26 5 -3 15 7 17 80 20 71 2 82 1 82 -14 0 -13 -7 -16 -32 -12
-38 6 -58 1 -58 -14 0 -7 22 -8 67 -4 56 6 64 5 55 -7 -16 -18 -5 -27 32 -27
37 0 76 -10 76 -19 0 -3 -28 -7 -62 -8 -35 -1 -74 -3 -88 -5 -19 -2 -24 1 -22
15 2 13 -4 17 -27 17 -16 0 -33 -4 -36 -10 -3 -5 3 -10 14 -10 12 0 21 -4 21
-10 0 -5 -16 -10 -35 -10 -19 0 -35 5 -35 10 0 6 6 10 13 10 8 0 7 4 -3 10
-42 27 -55 -9 -19 -54 11 -14 17 -26 13 -26 -4 0 0 -8 8 -17 8 -10 26 -38 41
-63 14 -25 42 -62 60 -83 19 -21 40 -57 47 -80 35 -118 92 -300 100 -322 49
-132 48 -134 -72 -199 -57 -30 -123 -69 -148 -86 -37 -24 -41 -30 -22 -30 12
0 22 -4 22 -8 0 -13 204 14 208 27 5 14 329 14 338 0 3 -5 -22 -10 -55 -10
-81 -2 -84 -2 -88 -15 -5 -16 55 -24 192 -24 81 0 115 -3 105 -10 -8 -5 -37
-10 -65 -11 -36 -1 -26 -4 36 -9 69 -5 90 -11 107 -28 13 -13 35 -22 51 -22
17 0 33 -4 36 -10 3 -5 19 -10 35 -10 16 0 32 -4 35 -10 3 -5 17 -10 31 -10
14 0 34 -5 45 -11 44 -23 -4 27 -73 76 -39 28 -76 55 -82 60 -6 6 -27 22 -46
35 -19 13 -37 27 -40 30 -11 14 -188 129 -237 154 -56 28 -73 52 -111 157 -11
30 -31 83 -45 119 -59 154 -67 176 -67 193 0 10 30 65 68 122 37 56 80 127 96
156 l29 54 34 -40 c19 -22 42 -53 50 -69 8 -15 30 -50 49 -76 33 -46 35 -47
78 -43 26 3 46 1 50 -6 5 -7 -5 -11 -28 -11 -38 0 -45 -10 -21 -30 8 -7 15
-21 15 -30 0 -10 3 -20 8 -22 10 -4 52 -87 52 -103 0 -7 4 -15 8 -17 7 -3 49
-87 83 -166 8 -17 17 -32 21 -32 5 0 8 -11 8 -25 0 -20 -11 -30 -59 -54 -61
-31 -121 -77 -121 -92 0 -12 102 -12 134 1 63 24 311 23 251 -1 -12 -4 21 -8
85 -9 70 0 111 -5 122 -14 10 -7 15 -16 12 -19 -8 -7 16 -12 119 -26 96 -13
117 -14 117 -1 0 23 -313 187 -424 221 l-78 24 -97 190 c-87 171 -96 194 -89
225 18 86 -23 442 -67 588 -7 20 0 26 71 58 44 19 88 39 99 43 48 20 75 35 75
43 0 4 6 8 13 8 18 0 67 24 67 33 0 4 6 7 14 7 17 0 180 81 184 92 2 5 11 8
21 8 9 0 21 4 27 9 9 9 31 22 144 84 98 54 417 260 468 302 9 8 46 35 82 62
36 26 70 52 76 58 7 5 31 26 54 44 23 19 48 40 54 46 6 5 27 23 46 39 62 50
193 180 270 267 41 46 78 86 81 89 19 17 177 235 246 340 46 69 87 130 93 137
5 7 10 15 10 19 0 3 9 19 20 34 18 26 66 111 94 167 6 13 14 23 19 23 4 0 7 9
7 19 0 11 4 21 8 23 23 10 240 476 326 703 15 39 31 79 36 90 10 23 80 237
100 305 7 25 20 65 28 90 8 25 19 63 24 85 5 22 13 57 18 78 24 94 30 118 50
207 68 311 109 659 110 927 0 236 -25 400 -93 608 -43 133 -151 326 -251 450
-91 112 -319 315 -355 315 -6 0 -11 5 -11 10 0 6 -7 10 -15 10 -8 0 -15 3 -15
8 0 4 -10 12 -23 18 -12 6 -49 25 -82 41 -63 32 -143 69 -185 85 -14 6 -33 14
-42 19 -10 5 -27 9 -37 9 -11 0 -23 5 -26 10 -3 6 -21 10 -40 10 -19 0 -36 4
-39 9 -6 9 -23 12 -161 30 -93 12 -232 12 -325 0z m120 -129 c0 -5 -18 -10
-40 -10 -22 0 -40 5 -40 10 0 6 18 10 40 10 22 0 40 -4 40 -10z m77 4 c-3 -3
-12 -4 -19 -1 -8 3 -5 6 6 6 11 1 17 -2 13 -5z m-421 -185 c3 -5 -13 -9 -35
-9 -23 0 -41 4 -41 9 0 5 16 9 35 9 19 0 38 -4 41 -9z m358 -12 c21 -9 40 -17
43 -17 9 0 59 -65 72 -94 20 -46 19 -144 -3 -185 -21 -39 -60 -81 -76 -81 -5
0 -10 -4 -10 -10 0 -5 -9 -10 -19 -10 -11 0 -23 -4 -26 -10 -3 -5 -33 -10 -65
-10 -32 0 -62 5 -65 10 -3 6 -15 10 -26 10 -10 0 -19 5 -19 10 0 6 -6 10 -12
10 -14 0 -54 47 -75 87 -21 41 -17 146 8 190 11 21 25 42 29 47 5 5 6 15 3 22
-4 10 3 14 24 14 16 0 33 4 39 9 10 10 88 27 119 26 11 -1 37 -9 59 -18z m269
-74 c-7 -2 -19 -2 -25 0 -7 3 -2 5 12 5 14 0 19 -2 13 -5z m-68 -13 c-3 -5
-10 -10 -16 -10 -5 0 -9 5 -9 10 0 6 7 10 16 10 8 0 12 -4 9 -10z m80 -20 c4
-6 -6 -10 -22 -9 -25 0 -26 1 -8 9 11 5 21 9 22 9 1 1 5 -3 8 -9z m-1585 -20
c0 -5 -9 -10 -19 -10 -11 0 -26 -8 -33 -18 -10 -15 -26 -18 -80 -18 -38 0 -68
1 -68 4 0 14 34 32 62 33 18 0 51 4 73 8 57 12 65 12 65 1z m1500 6 c0 -3 -4
-8 -10 -11 -5 -3 -10 -1 -10 4 0 6 5 11 10 11 6 0 10 -2 10 -4z m-1100 -290
c0 -9 -40 -13 -46 -5 -3 5 6 9 20 9 14 0 26 -2 26 -4z m160 -16 c-8 -5 -23
-10 -33 -10 -14 0 -17 -5 -13 -22 3 -13 3 -17 0 -10 -3 6 -19 12 -35 12 -31 0
-32 1 -23 24 5 12 20 16 63 16 40 0 52 -3 41 -10z m30 -20 c0 -5 -7 -10 -15
-10 -8 0 -15 5 -15 10 0 6 7 10 15 10 8 0 15 -4 15 -10z m-18 -61 c3 -9 21
-15 51 -18 20 -2 4 -30 -20 -33 -38 -4 -45 -38 -9 -38 19 0 26 -5 26 -20 0
-11 7 -20 15 -20 8 0 15 5 15 10 0 6 5 10 10 10 6 0 10 -7 10 -15 0 -8 -5 -15
-11 -15 -5 0 -8 -4 -4 -10 3 -5 11 -7 19 -4 14 5 36 -35 36 -66 0 -11 -11 -22
-27 -28 -27 -10 -27 -10 12 -13 40 -2 40 -2 -10 -8 -58 -7 -94 -1 -55 10 21 6
20 7 -12 8 -21 1 -37 4 -37 9 1 4 1 22 0 40 -1 27 -5 32 -26 32 -17 0 -25 5
-25 18 0 10 -5 23 -12 30 -9 9 -9 12 3 12 9 1 7 7 -9 20 -13 10 -23 23 -22 27
0 4 -9 9 -20 11 -12 2 -19 9 -17 15 4 14 70 10 75 -4 5 -12 42 -11 42 1 0 6
-7 10 -15 10 -17 0 -18 2 -9 24 7 18 21 21 26 5z m105 -9 c-3 -10 0 -21 7 -23
6 -2 7 -8 3 -13 -9 -10 -28 16 -21 28 3 4 -7 8 -21 8 -15 0 -24 4 -20 10 3 6
18 10 32 10 20 0 24 -4 20 -20z m-259 -52 c-2 -6 -10 -14 -16 -16 -7 -2 -10 2
-6 12 7 18 28 22 22 4z m1332 -18 c0 -5 -2 -10 -4 -10 -3 0 -8 5 -11 10 -3 6
-1 10 4 10 6 0 11 -4 11 -10z m100 -40 c0 -5 -22 -10 -50 -10 -27 0 -50 5 -50
10 0 6 23 10 50 10 28 0 50 -4 50 -10z m47 4 c-3 -3 -12 -4 -19 -1 -8 3 -5 6
6 6 11 1 17 -2 13 -5z m-22 -53 c-18 -7 -55 -4 -55 5 0 2 17 4 38 3 28 0 32
-2 17 -8z m66 -41 c6 0 7 -4 4 -10 -8 -13 -62 -13 -70 -1 -6 11 23 21 43 15 8
-2 18 -4 23 -4z m39 -50 c0 -5 -7 -10 -15 -10 -8 0 -15 5 -15 10 0 6 7 10 15
10 8 0 15 -4 15 -10z m-1222 -45 c-3 -4 -49 -8 -101 -9 -81 -3 -94 -1 -90 12
5 11 19 13 62 10 31 -2 70 -2 86 2 29 6 55 -3 43 -15z m1262 5 c0 -5 -9 -10
-20 -10 -11 0 -20 5 -20 10 0 6 9 10 20 10 11 0 20 -4 20 -10z m-1310 -37 c0
-14 -19 -38 -25 -32 -8 8 5 39 16 39 5 0 9 -3 9 -7z m1375 -63 c-3 -5 -15 -10
-26 -10 -10 0 -19 5 -19 10 0 6 12 10 26 10 14 0 23 -4 19 -10z m-1275 -40 c0
-5 -25 -10 -55 -10 -30 0 -55 -4 -55 -10 0 -5 -4 -10 -10 -10 -5 0 -7 7 -4 15
4 9 24 15 57 18 29 2 55 4 60 5 4 1 7 -2 7 -8z m-47 -27 c-7 -2 -19 -2 -25 0
-7 3 -2 5 12 5 14 0 19 -2 13 -5z m-28 -33 c-3 -5 -10 -10 -16 -10 -5 0 -9 5
-9 10 0 6 7 10 16 10 8 0 12 -4 9 -10z m52 4 c-3 -3 -12 -4 -19 -1 -8 3 -5 6
6 6 11 1 17 -2 13 -5z m-207 -364 c0 -5 -7 -10 -15 -10 -8 0 -15 5 -15 10 0 6
7 10 15 10 8 0 15 -4 15 -10z m-170 -100 c0 -5 -4 -10 -10 -10 -5 0 -10 5 -10
10 0 6 5 10 10 10 6 0 10 -4 10 -10z m-30 -60 c0 -5 -9 -10 -20 -10 -11 0 -20
5 -20 10 0 6 9 10 20 10 11 0 20 -4 20 -10z m-70 -20 c0 -5 -12 -10 -26 -10
-14 0 -23 4 -19 10 3 6 15 10 26 10 10 0 19 -4 19 -10z m-70 -17 c-1 -19 -19
-35 -34 -30 -26 10 -19 37 9 37 14 0 25 -3 25 -7z m-45 -63 c-3 -5 -11 -10
-16 -10 -6 0 -7 5 -4 10 3 6 11 10 16 10 6 0 7 -4 4 -10z m-85 -24 c0 -9 -7
-12 -20 -9 -11 3 -20 9 -20 14 0 5 9 9 20 9 11 0 20 -6 20 -14z m-46 -71 c-7
-16 -24 -21 -24 -6 0 8 7 13 27 20 1 1 0 -6 -3 -14z m-94 -75 c0 -11 5 -20 10
-20 6 0 10 -4 10 -10 0 -19 -39 -10 -45 10 -3 11 -13 20 -21 20 -8 0 -14 5
-14 10 0 6 14 10 30 10 23 0 30 -4 30 -20z m100 10 c0 -5 -4 -10 -10 -10 -5 0
-10 5 -10 10 0 6 5 10 10 10 6 0 10 -4 10 -10z m-194 -24 c19 -20 18 -33 -5
-46 -16 -8 -23 -6 -34 10 -14 20 -54 19 -41 -1 3 -5 -2 -9 -12 -9 -25 0 -55
-40 -48 -64 4 -17 3 -18 -6 -6 -9 11 -13 12 -17 3 -6 -15 -43 -17 -43 -3 0 6
5 10 10 10 6 0 10 9 10 20 0 13 7 20 19 20 11 0 23 9 26 20 4 13 15 20 30 20
13 0 27 5 30 10 3 6 21 10 38 10 24 0 28 3 17 10 -11 7 -12 10 -2 10 7 0 20
-6 28 -14z m537 -113 c-13 -2 -33 -2 -45 0 -13 2 -3 4 22 4 25 0 35 -2 23 -4z
m974 -9 c-3 -3 -12 -4 -19 -1 -8 3 -5 6 6 6 11 1 17 -2 13 -5z m-1790 -29 c0
-8 -6 -15 -14 -15 -17 0 -17 17 0 23 6 3 12 6 13 6 0 1 1 -6 1 -14z m1818 -15
c3 -5 -1 -10 -9 -10 -9 0 -16 5 -16 10 0 6 4 10 9 10 6 0 13 -4 16 -10z
m-1840 -29 c3 -36 -36 -71 -80 -71 -19 0 -35 5 -35 10 0 6 7 10 15 10 8 0 15
5 15 11 0 7 11 9 28 6 27 -5 28 -4 24 30 -4 29 -2 34 13 31 11 -2 19 -13 20
-27z m55 -7 c0 -13 -4 -24 -10 -24 -5 0 -10 14 -10 31 0 17 4 28 10 24 6 -3
10 -17 10 -31z m1829 -53 c9 -6 10 -11 2 -15 -13 -8 -31 1 -31 15 0 11 11 11
29 0z m84 -8 c-7 -2 -19 -2 -25 0 -7 3 -2 5 12 5 14 0 19 -2 13 -5z m-2110
-28 c-4 -12 4 -15 33 -16 38 0 38 -1 14 -12 -14 -6 -29 -16 -33 -22 -6 -7 -10
-6 -14 3 -6 14 -43 16 -43 2 0 -5 -10 -10 -22 -10 -17 0 -19 -3 -10 -12 7 -7
12 -17 12 -22 0 -6 -4 -5 -9 3 -8 12 -12 13 -25 1 -20 -16 -28 -9 -31 25 -3
22 1 25 26 25 16 0 29 5 29 10 0 6 9 10 21 10 11 0 17 5 14 10 -3 6 1 10 9 10
9 0 16 5 16 11 0 5 4 8 10 4 5 -3 7 -12 3 -20z m2037 -16 c0 -6 -4 -7 -10 -4
-5 3 -10 11 -10 16 0 6 5 7 10 4 6 -3 10 -11 10 -16z m20 -49 c0 -5 -4 -10
-10 -10 -5 0 -10 5 -10 10 0 6 5 10 10 10 6 0 10 -4 10 -10z m40 -40 c0 -5
-14 -10 -31 -10 -17 0 -28 4 -24 10 3 6 17 10 31 10 13 0 24 -4 24 -10z m35 0
c3 -5 -1 -10 -10 -10 -9 0 -13 5 -10 10 3 6 8 10 10 10 2 0 7 -4 10 -10z
m-2279 -46 c-3 -18 -16 -31 -16 -16 0 7 -15 12 -37 12 -33 0 -35 1 -19 13 23
17 75 10 72 -9z m-93 -31 c2 -22 7 -45 11 -52 4 -6 0 -14 -9 -18 -10 -3 -21 0
-25 7 -5 8 -17 10 -35 6 -15 -4 -25 -3 -23 1 23 48 33 62 49 66 11 3 19 13 19
23 0 32 10 8 13 -33z m147 37 c0 -5 -7 -10 -15 -10 -8 0 -15 5 -15 10 0 6 7
10 15 10 8 0 15 -4 15 -10z m2187 -16 c-3 -3 -12 -4 -19 -1 -8 3 -5 6 6 6 11
1 17 -2 13 -5z m28 -44 c-44 -11 -65 -11 -65 0 0 6 21 9 48 9 42 -1 44 -2 17
-9z m-2465 -41 c0 -5 -13 -9 -30 -9 -35 0 -41 17 -7 22 26 5 37 1 37 -13z
m2425 -9 c3 -5 1 -10 -4 -10 -6 0 -11 5 -11 10 0 6 2 10 4 10 3 0 8 -4 11 -10z
m-2443 -85 c2 -19 1 -35 -3 -35 -4 0 -11 -9 -14 -20 -8 -25 -47 -28 -43 -2 5
26 21 42 30 28 5 -7 8 -6 8 5 0 8 -6 21 -12 27 -10 10 -10 15 2 22 24 15 28
12 32 -25z m-62 5 c0 -11 -4 -20 -10 -20 -5 0 -10 -13 -10 -30 0 -21 -5 -30
-16 -30 -11 0 -14 -6 -9 -20 6 -18 2 -20 -39 -20 -25 0 -46 -4 -46 -10 0 -10
-82 -14 -92 -5 -9 10 16 55 30 55 24 0 102 60 102 78 0 13 14 17 57 20 27 2
33 -1 33 -18z m2565 -50 c3 -5 1 -10 -4 -10 -6 0 -11 5 -11 10 0 6 2 10 4 10
3 0 8 -4 11 -10z m-38 -6 c-3 -3 -12 -4 -19 -1 -8 3 -5 6 6 6 11 1 17 -2 13
-5z m-2512 -54 c-3 -5 -13 -10 -21 -10 -8 0 -14 5 -14 10 0 6 9 10 21 10 11 0
17 -4 14 -10z m-217 -102 c3 -21 -1 -28 -14 -28 -10 0 -14 -3 -11 -6 4 -4 -3
-16 -16 -27 -15 -13 -18 -21 -9 -24 6 -3 12 -9 12 -13 0 -19 -45 -50 -72 -50
-15 0 -28 -4 -28 -10 0 -5 -9 -10 -19 -10 -11 0 -23 -9 -26 -20 -3 -11 -10
-20 -15 -20 -5 0 -14 -27 -21 -60 -11 -57 -13 -60 -41 -60 -20 0 -27 4 -22 13
6 10 4 10 -7 0 -7 -7 -21 -13 -31 -13 -22 0 -24 -26 -3 -46 8 -9 15 -21 15
-27 0 -7 -4 -6 -10 3 -6 10 -10 11 -10 3 0 -8 -14 -13 -35 -13 -19 0 -35 5
-35 10 0 6 5 10 10 10 6 0 10 5 10 10 0 6 -12 10 -27 10 -21 0 -24 -3 -15 -12
18 -18 15 -25 -12 -32 -39 -10 -86 4 -86 25 0 13 7 19 21 19 20 0 79 50 79 68
0 5 11 21 25 36 14 15 28 38 31 51 4 18 13 25 29 25 21 0 65 44 65 65 0 9 27
35 37 35 4 0 14 9 21 20 7 11 17 20 23 20 6 0 24 12 39 28 15 15 34 33 42 39
7 7 33 12 58 10 41 -2 45 -4 48 -29z m67 22 c4 -6 -5 -10 -19 -10 -14 0 -26 5
-26 10 0 6 9 10 19 10 11 0 23 -4 26 -10z m2695 -140 c0 -5 -11 -10 -25 -10
-14 0 -25 5 -25 10 0 6 11 10 25 10 14 0 25 -4 25 -10z m-13 -46 c-3 -3 -12
-4 -19 -1 -8 3 -5 6 6 6 11 1 17 -2 13 -5z m-2887 -64 c0 -11 -4 -20 -10 -20
-5 0 -10 2 -10 4 0 2 -3 11 -6 20 -4 11 -1 16 10 16 9 0 16 -8 16 -20z m2860
10 c0 -5 -11 -10 -25 -10 -14 0 -25 5 -25 10 0 6 11 10 25 10 14 0 25 -4 25
-10z m-5 -40 c-3 -5 -17 -10 -31 -10 -13 0 -24 5 -24 10 0 6 14 10 31 10 17 0
28 -4 24 -10z m-2955 -140 c0 -5 -4 -10 -9 -10 -6 0 -13 5 -16 10 -3 6 1 10 9
10 9 0 16 -4 16 -10z m-232 -76 c10 -5 -14 -34 -29 -34 -10 0 -19 -4 -19 -10
0 -5 9 -10 20 -10 11 0 20 -4 20 -10 0 -5 -9 -10 -20 -10 -11 0 -20 -4 -20
-10 0 -5 -14 -10 -30 -10 -28 0 -30 -2 -24 -27 4 -16 11 -29 16 -31 14 -6 9
-22 -7 -22 -8 0 -19 -9 -25 -20 -10 -18 -8 -20 23 -20 26 0 33 -4 34 -20 1
-15 -4 -20 -23 -20 -14 0 -23 4 -20 8 3 5 -6 15 -19 22 -24 13 -34 30 -17 30
4 0 8 10 9 23 0 12 -1 16 -4 10 -3 -7 -13 -13 -23 -13 -10 0 -21 -9 -25 -19
-4 -15 -17 -20 -55 -23 -28 -1 -55 -1 -60 0 -15 5 -12 22 3 22 30 0 67 26 66
45 -3 50 0 55 36 55 29 0 37 5 46 27 6 17 7 35 1 48 -8 18 -4 21 52 30 41 7
66 7 76 1 8 -6 16 -11 18 -12z m52 -24 c12 -8 9 -10 -13 -10 -16 0 -26 4 -22
10 8 12 16 12 35 0z m-339 -249 c8 -1 19 -27 25 -58 4 -19 0 -23 -24 -23 -16
0 -33 -8 -42 -20 -8 -11 -25 -20 -37 -20 -13 0 -23 -4 -23 -9 0 -5 -9 -11 -21
-14 -11 -3 -19 -11 -18 -19 4 -36 -2 -98 -11 -98 -5 0 -10 18 -10 40 0 22 -4
40 -10 40 -5 0 -10 -5 -10 -11 0 -5 -4 -7 -10 -4 -5 3 -10 -1 -10 -9 0 -9 5
-16 10 -16 6 0 10 -5 10 -11 0 -5 -5 -7 -12 -3 -7 4 -8 3 -4 -5 5 -7 -1 -20
-13 -30 -11 -10 -18 -21 -14 -25 3 -3 1 -6 -5 -6 -7 0 -12 4 -12 8 0 4 -9 8
-21 9 -15 1 -19 -2 -15 -14 4 -9 1 -20 -6 -24 -10 -7 -10 -13 -1 -27 10 -17 9
-18 -11 -15 -19 4 -24 -1 -29 -26 -5 -25 -12 -31 -32 -31 -14 0 -25 -4 -25
-10 0 -5 4 -10 9 -10 13 0 21 -27 15 -45 -4 -8 -13 -15 -21 -15 -8 0 -11 5 -8
10 3 6 1 10 -4 10 -6 0 -11 -4 -11 -10 0 -5 -20 -10 -45 -10 -29 0 -45 -4 -45
-12 0 -9 -4 -8 -10 2 -6 10 -10 11 -10 3 0 -8 -13 -13 -30 -13 -34 0 -40 15
-10 23 24 6 27 37 4 37 -26 0 -11 35 16 38 14 2 29 8 35 13 13 13 43 11 47 -3
3 -8 13 -8 36 3 32 14 38 33 11 35 -8 1 -20 2 -26 3 -22 2 -10 25 27 51 33 24
42 38 43 68 0 6 10 12 22 12 24 0 105 68 105 88 0 6 8 12 17 12 25 0 63 40 63
66 0 23 17 34 51 34 11 0 23 8 26 18 9 23 24 32 48 27 11 -2 23 -4 26 -4z
m-580 -585 c6 3 5 -3 -3 -15 -10 -16 -23 -21 -55 -21 -23 0 -45 -4 -48 -10 -3
-5 -18 -10 -32 -10 -20 0 -24 -4 -18 -17 4 -10 8 -24 8 -30 0 -7 6 -13 14 -13
7 0 13 -4 13 -10 0 -5 -7 -10 -16 -10 -9 0 -22 -6 -28 -14 -6 -8 -21 -17 -33
-20 -17 -6 -22 -2 -25 16 -4 21 -5 21 -13 -7 -4 -16 -13 -33 -19 -37 -6 -4 -7
-10 -3 -15 5 -4 12 -1 17 7 5 8 12 11 16 7 4 -4 -3 -15 -14 -26 -12 -10 -22
-24 -22 -30 0 -18 -26 -41 -47 -42 -17 -1 -17 -2 0 -6 16 -4 15 -7 -8 -19 -32
-16 -59 -18 -50 -4 3 6 -3 10 -14 10 -12 0 -21 -4 -21 -10 0 -5 5 -10 10 -10
6 0 10 -9 10 -20 0 -22 15 -27 24 -7 5 10 7 10 12 0 3 -7 12 -13 20 -13 8 0
14 -4 14 -10 0 -15 30 -12 30 3 0 6 6 3 12 -8 6 -11 16 -23 21 -26 5 -4 7 -13
5 -20 -3 -10 -10 -7 -23 9 -23 26 -35 28 -35 7 0 -8 5 -15 11 -15 6 0 17 -7
26 -15 8 -8 19 -13 24 -10 5 4 9 1 9 -4 0 -6 -11 -11 -25 -11 -14 0 -25 -4
-25 -10 0 -5 -7 -10 -16 -10 -8 0 -12 -4 -9 -10 3 -5 -1 -10 -9 -10 -9 0 -16
-5 -16 -10 0 -6 -6 -5 -14 2 -8 7 -12 16 -10 19 2 3 -14 3 -35 -1 -31 -5 -40
-3 -50 12 -11 18 -41 25 -41 9 0 -12 -49 -31 -85 -32 -39 -2 -91 -25 -99 -44
-7 -20 -161 -22 -170 -2 -5 10 -7 10 -12 0 -3 -7 -19 -13 -36 -13 -24 0 -28 3
-19 13 6 8 8 17 4 20 -3 4 10 7 30 7 24 0 44 7 57 20 11 11 31 20 45 20 14 0
25 5 25 10 0 6 9 10 20 10 11 0 20 5 20 10 0 6 -4 10 -10 10 -22 0 -8 17 25
30 19 8 35 17 35 22 0 4 6 8 14 8 8 0 18 9 21 20 3 11 14 20 24 20 19 0 61 35
61 50 0 6 11 10 24 10 15 0 27 7 30 18 6 19 11 21 66 24 27 1 30 5 30 34 0 45
9 64 31 64 13 0 19 7 20 23 0 12 3 16 6 10 7 -20 37 -15 53 7 8 11 22 20 31
20 10 0 19 11 23 30 4 21 11 30 26 30 11 0 20 5 20 10 0 6 9 10 19 10 11 0 21
4 23 9 5 13 88 21 88 8 0 -7 6 -3 12 8 11 18 13 18 16 2 2 -9 8 -14 13 -11z
m179 14 c0 -5 -4 -10 -10 -10 -5 0 -10 5 -10 10 0 6 5 10 10 10 6 0 10 -4 10
-10z m-236 -106 c9 -23 8 -24 -14 -24 -11 0 -20 2 -20 4 0 12 13 36 20 36 4 0
11 -7 14 -16z m1123 -210 c-3 -3 -12 -4 -19 -1 -8 3 -5 6 6 6 11 1 17 -2 13
-5z m-1247 -24 c0 -5 -6 -10 -14 -10 -8 0 -18 5 -21 10 -3 6 3 10 14 10 12 0
21 -4 21 -10z m150 -120 c0 -5 -2 -10 -4 -10 -3 0 -8 5 -11 10 -3 6 -1 10 4
10 6 0 11 -4 11 -10z m-80 -39 c0 -11 -29 -35 -35 -29 -10 9 7 38 21 38 8 0
14 -4 14 -9z m-70 -40 c0 -12 -26 -32 -33 -25 -6 7 14 33 26 34 4 0 7 -4 7 -9z
m-77 -41 c-5 -19 -23 -39 -23 -25 0 9 20 45 24 45 2 0 2 -9 -1 -20z m-57 -10
c8 0 14 -10 14 -22 0 -12 -3 -18 -7 -15 -3 4 -13 1 -21 -6 -11 -8 -14 -8 -9 0
4 6 2 13 -4 15 -8 3 -9 13 -4 28 5 14 10 19 12 13 3 -7 11 -13 19 -13z m-503
-54 c3 -7 -1 -23 -9 -35 -8 -11 -12 -21 -7 -22 23 -2 -68 -28 -100 -28 -30 -1
-40 -6 -44 -20 -3 -11 -20 -27 -38 -35 -33 -16 -129 -22 -159 -10 -20 8 -21
24 -2 24 8 0 13 7 12 17 -1 12 9 17 34 20 33 4 65 21 56 30 -5 6 42 53 54 53
4 0 11 -6 14 -12 4 -9 10 -6 22 10 14 19 25 22 89 22 53 0 74 -4 78 -14z m467
4 c0 -5 -4 -10 -10 -10 -5 0 -10 5 -10 10 0 6 5 10 10 10 6 0 10 -4 10 -10z
m-290 -120 c0 -5 -10 -10 -22 -10 -19 0 -20 2 -8 10 19 13 30 13 30 0z m-50
-60 c0 -5 -9 -10 -20 -10 -11 0 -20 -4 -20 -10 0 -5 -7 -10 -15 -10 -18 0 -19
6 -2 25 14 16 57 20 57 5z m-103 -36 c-3 -3 -12 -4 -19 -1 -8 3 -5 6 6 6 11 1
17 -2 13 -5z m3753 -44 c0 -6 -26 -10 -61 -10 -33 0 -58 4 -55 8 7 12 116 14
116 2z m-467 -17 c-7 -2 -19 -2 -25 0 -7 3 -2 5 12 5 14 0 19 -2 13 -5z m317
-4 c0 -5 4 -8 10 -4 13 8 61 -5 54 -16 -3 -5 -32 -9 -64 -9 -32 0 -70 -4 -84
-10 -45 -17 -28 4 22 27 54 26 62 27 62 12z m-3973 -321 c2 6 19 12 36 11 30
0 31 -1 9 -11 -12 -6 -21 -18 -20 -27 3 -13 -7 -16 -51 -16 -44 0 -54 3 -57
18 -1 12 5 17 21 17 13 0 27 5 31 11 4 8 9 7 16 -2 7 -11 11 -11 15 -1z m58
-18 c3 -5 1 -10 -4 -10 -6 0 -11 5 -11 10 0 6 2 10 4 10 3 0 8 -4 11 -10z
m-169 -84 c27 -28 17 -46 -26 -46 -44 0 -48 -4 -25 -26 23 -23 18 -34 -15 -34
-16 0 -30 5 -30 10 0 18 -29 10 -35 -10 -3 -11 -13 -20 -21 -20 -18 0 -18 -8
0 -26 20 -20 39 -18 56 6 12 17 40 28 40 16 0 -16 -14 -36 -25 -36 -7 0 -18
-13 -25 -30 -14 -34 -40 -40 -40 -10 0 14 -7 20 -21 20 -16 0 -19 -4 -14 -20
4 -13 0 -23 -14 -32 -26 -16 -27 -28 -2 -28 11 0 23 -4 26 -10 9 -15 -31 -12
-44 3 -6 8 -23 12 -42 9 -26 -4 -31 -2 -26 11 7 20 -1 26 -40 29 -20 1 -29 8
-30 20 -1 15 6 18 38 18 40 0 75 -20 61 -35 -4 -4 0 -6 8 -3 8 3 15 15 15 28
0 13 6 25 13 28 19 6 14 22 -8 22 -22 0 -27 24 -8 36 7 4 27 7 45 6 28 -2 36
3 53 30 11 18 20 41 20 51 0 10 8 17 19 17 11 0 23 5 26 10 9 15 54 12 71 -4z
m1751 -268 c-3 -8 -6 -5 -6 6 -1 11 2 17 5 13 3 -3 4 -12 1 -19z m-397 -8 c0
-5 -5 -10 -11 -10 -5 0 -7 5 -4 10 3 6 8 10 11 10 2 0 4 -4 4 -10z m-537 -17
c-13 -2 -33 -2 -45 0 -13 2 -3 4 22 4 25 0 35 -2 23 -4z m134 1 c-3 -3 -12 -4
-19 -1 -8 3 -5 6 6 6 11 1 17 -2 13 -5z m481 -26 c-7 -20 -58 -23 -58 -4 0 11
10 16 31 16 20 0 29 -4 27 -12z m-528 -158 c0 -5 -11 -10 -25 -10 -14 0 -25 5
-25 10 0 6 11 10 25 10 14 0 25 -4 25 -10z m1350 -12 c0 -4 -9 -8 -19 -8 -11
0 -26 -3 -35 -6 -10 -4 -16 -1 -16 10 0 11 9 15 35 14 19 -1 35 -5 35 -10z
m-1595 -9 c4 -6 14 -8 22 -5 8 3 12 2 8 -3 -3 -5 1 -11 7 -14 7 -2 -11 -6 -40
-8 -35 -3 -57 0 -64 9 -8 9 -5 12 11 12 11 0 21 5 21 10 0 13 27 13 35 -1z
m-75 -39 c0 -5 -7 -10 -15 -10 -8 0 -15 5 -15 10 0 6 7 10 15 10 8 0 15 -4 15
-10z m1780 0 c12 -8 11 -10 -7 -10 -13 0 -23 5 -23 10 0 13 11 13 30 0z
m-1903 -74 c9 -9 -16 -26 -39 -26 -11 0 -15 6 -11 18 4 18 35 23 50 8z m-453
-12 c8 -22 8 -26 -4 -19 -6 4 -17 2 -24 -4 -10 -8 -17 -7 -27 6 -8 10 -9 14
-2 10 6 -4 18 -1 25 7 17 20 24 20 32 0z m194 2 c-7 -8 -16 -12 -21 -9 -11 7
2 23 19 23 12 0 12 -2 2 -14z m-1050 -74 c2 -7 -1 -12 -7 -12 -6 0 -11 -4 -11
-10 0 -5 15 -10 34 -10 30 0 33 -3 30 -26 -1 -14 -4 -26 -6 -27 -2 -1 -13 -8
-25 -14 -27 -15 -169 -17 -178 -3 -3 6 -15 10 -26 10 -10 0 -19 3 -19 6 0 10
28 34 39 34 11 0 15 12 12 43 -2 13 5 17 31 17 19 0 39 -5 45 -11 9 -9 16 -8
27 4 18 17 48 16 54 -1z m362 -62 c0 -5 -4 -10 -10 -10 -5 0 -10 5 -10 10 0 6
5 10 10 10 6 0 10 -4 10 -10z m110 -170 c0 -11 -9 -24 -19 -30 -25 -13 -94
-13 -86 0 3 6 -1 10 -9 10 -8 0 -20 8 -25 18 -9 17 -4 18 65 20 66 1 74 -1 74
-18z m3546 -1 c3 -5 -3 -17 -12 -26 -13 -13 -19 -14 -22 -5 -2 6 -8 12 -13 12
-6 0 -7 -4 -4 -10 4 -6 -6 -10 -22 -10 -19 0 -24 3 -14 9 10 7 8 12 -9 24
l-22 15 28 4 c39 4 83 -2 90 -13z m-309 -100 c-4 -26 -13 -33 -33 -25 -16 6
-15 8 2 21 18 14 18 14 -6 15 -23 1 -23 2 -5 9 27 11 45 3 42 -20z m93 -8 c0
-5 -9 -11 -20 -14 -13 -3 -20 0 -20 9 0 8 9 14 20 14 11 0 20 -4 20 -9z m521
-10 c-8 -5 -20 -7 -28 -4 -21 8 -15 13 15 13 20 0 23 -3 13 -9z m-4141 -11 c0
-15 -35 -30 -69 -30 -29 0 -30 2 -19 20 9 14 24 20 50 20 21 0 38 -4 38 -10z
m3808 -9 c17 -10 -4 -61 -25 -61 -8 0 -12 4 -8 9 3 5 -25 12 -62 15 -38 4 -86
11 -108 16 -31 7 -21 8 43 4 51 -3 82 -2 82 5 0 17 56 26 78 12z m-3953 -88
c0 -32 -21 -51 -38 -34 -7 7 -6 12 6 17 9 3 17 13 17 21 0 8 -5 11 -12 7 -7
-4 -8 -3 -4 4 13 22 32 12 31 -15z m3880 17 c-3 -5 -24 -10 -45 -10 -21 0 -42
5 -45 10 -4 6 13 10 45 10 32 0 49 -4 45 -10z m15 -40 c0 -5 -16 -10 -35 -10
-19 0 -35 5 -35 10 0 6 16 10 35 10 19 0 35 -4 35 -10z m-4020 -100 c0 -5 -7
-10 -15 -10 -8 0 -15 5 -15 10 0 6 7 10 15 10 8 0 15 -4 15 -10z m4570 0 c0
-5 -4 -10 -10 -10 -5 0 -10 5 -10 10 0 6 5 10 10 10 6 0 10 -4 10 -10z m-520
-280 c0 -5 -9 -10 -20 -10 -11 0 -20 5 -20 10 0 6 9 10 20 10 11 0 20 -4 20
-10z m52 -142 c-9 -9 -15 -9 -24 0 -9 9 -7 12 12 12 19 0 21 -3 12 -12z m881
-15 c-13 -2 -35 -2 -50 0 -16 2 -5 4 22 4 28 0 40 -2 28 -4z"/>
<path d="M9391 10261 c-34 -9 -37 -27 -6 -35 43 -11 85 -61 85 -102 0 -65 -50
-124 -107 -124 -38 -1 31 -40 70 -40 45 0 112 41 133 81 16 32 19 119 4 119
-5 0 -10 8 -10 18 0 27 -31 59 -73 77 -39 16 -57 17 -96 6z"/>
<path d="M8730 9740 c20 -13 33 -13 25 0 -3 6 -14 10 -23 10 -15 0 -15 -2 -2
-10z"/>
<path d="M8763 9703 c9 -2 23 -2 30 0 6 3 -1 5 -18 5 -16 0 -22 -2 -12 -5z"/>
<path d="M8755 9670 c3 -5 17 -10 31 -10 14 0 22 4 19 10 -3 6 -17 10 -31 10
-14 0 -22 -4 -19 -10z"/>
<path d="M8832 9629 c5 -14 54 -23 62 -11 3 4 -3 8 -12 8 -9 1 -25 5 -36 9
-14 6 -18 5 -14 -6z"/>
<path d="M8870 9590 c0 -5 9 -10 20 -10 11 0 20 5 20 10 0 6 -9 10 -20 10 -11
0 -20 -4 -20 -10z"/>
<path d="M6950 7670 c0 -5 9 -10 19 -10 11 0 23 5 26 10 4 6 -5 10 -19 10 -14
0 -26 -4 -26 -10z"/>
<path d="M6860 7566 c0 -8 -7 -16 -15 -20 -19 -7 -19 -22 -1 -29 8 -3 13 1 12
11 0 9 5 16 12 15 6 -2 12 6 12 17 0 11 -4 20 -10 20 -5 0 -10 -6 -10 -14z"/>
<path d="M6780 7429 c0 -5 5 -7 10 -4 6 3 10 8 10 11 0 2 -4 4 -10 4 -5 0 -10
-5 -10 -11z"/>
<path d="M6185 6850 c-3 -5 -1 -10 4 -10 6 0 11 5 11 10 0 6 -2 10 -4 10 -3 0
-8 -4 -11 -10z"/>
<path d="M5210 6025 c-1 -5 -2 -13 -1 -17 0 -5 -6 -8 -14 -8 -8 0 -15 -9 -15
-20 0 -14 7 -20 21 -20 16 0 19 -4 14 -20 -5 -16 -2 -20 14 -20 12 0 21 5 21
10 0 6 6 10 14 10 9 0 13 10 13 28 -2 38 -37 73 -37 37 0 -23 -18 -18 -23 8
-2 12 -5 18 -7 12z"/>
<path d="M5110 5950 c0 -5 12 -10 26 -10 14 0 23 4 19 10 -3 6 -15 10 -26 10
-10 0 -19 -4 -19 -10z"/>
<path d="M5080 5910 c0 -5 7 -10 16 -10 8 0 12 5 9 10 -3 6 -10 10 -16 10 -5
0 -9 -4 -9 -10z"/>
<path d="M5296 5875 c4 -8 10 -15 15 -15 5 0 9 7 9 15 0 8 -7 15 -15 15 -9 0
-12 -6 -9 -15z"/>
<path d="M5020 5870 c0 -5 5 -10 10 -10 6 0 10 5 10 10 0 6 -4 10 -10 10 -5 0
-10 -4 -10 -10z"/>
<path d="M5050 5839 c0 -11 4 -18 10 -14 5 3 7 12 3 20 -7 21 -13 19 -13 -6z"/>
<path d="M4745 5670 c-3 -5 1 -10 10 -10 9 0 13 5 10 10 -3 6 -8 10 -10 10 -2
0 -7 -4 -10 -10z"/>
<path d="M4480 5090 c0 -5 5 -10 10 -10 6 0 10 5 10 10 0 6 -4 10 -10 10 -5 0
-10 -4 -10 -10z"/>
<path d="M8360 10230 c0 -5 4 -10 9 -10 6 0 13 5 16 10 3 6 -1 10 -9 10 -9 0
-16 -4 -16 -10z"/>
<path d="M8500 10110 c0 -5 7 -10 15 -10 8 0 15 5 15 10 0 6 -7 10 -15 10 -8
0 -15 -4 -15 -10z"/>
<path d="M8378 9993 c7 -3 16 -2 19 1 4 3 -2 6 -13 5 -11 0 -14 -3 -6 -6z"/>
<path d="M8495 9950 c-16 -7 -17 -9 -3 -9 9 -1 20 4 23 9 7 11 7 11 -20 0z"/>
<path d="M6020 4700 c0 -5 10 -10 23 -10 18 0 19 2 7 10 -19 13 -30 13 -30 0z"/>
<path d="M6246 4683 c5 -5 11 -12 15 -16 3 -4 12 -1 19 8 11 13 9 15 -15 15
-16 0 -24 -3 -19 -7z"/>
<path d="M5916 4671 c-3 -5 1 -14 8 -20 12 -10 13 -8 9 8 -6 23 -9 25 -17 12z"/>
<path d="M5980 4671 c0 -5 -8 -12 -17 -14 -15 -4 -15 -5 -2 -6 9 0 22 6 29 14
9 10 9 15 1 15 -6 0 -11 -4 -11 -9z"/>
<path d="M6010 4670 c0 -5 7 -7 15 -4 8 4 15 8 15 10 0 2 -7 4 -15 4 -8 0 -15
-4 -15 -10z"/>
<path d="M6300 4630 c0 -5 5 -10 10 -10 6 0 10 5 10 10 0 6 -4 10 -10 10 -5 0
-10 -4 -10 -10z"/>
<path d="M3890 4580 c0 -11 7 -20 15 -20 8 0 15 9 15 20 0 11 -7 20 -15 20 -8
0 -15 -9 -15 -20z"/>
<path d="M6340 4590 c0 -5 5 -10 11 -10 5 0 7 5 4 10 -3 6 -8 10 -11 10 -2 0
-4 -4 -4 -10z"/>
<path d="M3795 4550 c-3 -5 1 -10 9 -10 9 0 16 5 16 10 0 6 -4 10 -9 10 -6 0
-13 -4 -16 -10z"/>
<path d="M3780 4470 c0 -5 7 -10 15 -10 8 0 15 5 15 10 0 6 -7 10 -15 10 -8 0
-15 -4 -15 -10z"/>
<path d="M6610 4450 c0 -5 14 -10 30 -10 17 0 30 5 30 10 0 6 -13 10 -30 10
-16 0 -30 -4 -30 -10z"/>
<path d="M3820 4434 c0 -7 27 -34 34 -34 4 0 1 9 -6 20 -12 19 -28 27 -28 14z"/>
<path d="M3840 4350 c0 -5 5 -10 11 -10 5 0 7 5 4 10 -3 6 -8 10 -11 10 -2 0
-4 -4 -4 -10z"/>
<path d="M3948 4323 c7 -3 16 -2 19 1 4 3 -2 6 -13 5 -11 0 -14 -3 -6 -6z"/>
<path d="M4008 4323 c6 -2 18 -2 25 0 6 3 1 5 -13 5 -14 0 -19 -2 -12 -5z"/>
<path d="M4304 4311 c7 -11 146 -11 146 0 0 5 -34 9 -76 9 -41 0 -73 -4 -70
-9z"/>
<path d="M6875 4310 c3 -5 22 -10 41 -10 19 0 34 5 34 10 0 6 -18 10 -41 10
-24 0 -38 -4 -34 -10z"/>
<path d="M7085 4260 c3 -5 8 -10 11 -10 2 0 4 5 4 10 0 6 -5 10 -11 10 -5 0
-7 -4 -4 -10z"/>
<path d="M7195 4120 c3 -5 10 -10 16 -10 5 0 9 5 9 10 0 6 -7 10 -16 10 -8 0
-12 -4 -9 -10z"/>
<path d="M3085 3795 c-55 -24 -118 -51 -140 -60 -54 -22 -85 -35 -115 -49 -23
-10 -58 -44 -262 -253 -33 -34 -59 -66 -57 -72 4 -8 149 43 191 69 10 5 27 10
38 10 11 0 20 5 20 10 0 6 7 10 15 10 8 0 23 4 33 9 9 5 31 15 47 22 17 8 55
37 85 66 107 100 257 248 269 266 21 28 -12 20 -124 -28z"/>
</g>
</svg>
